<svg height="114.8625" viewBox="0 0 114.8625 114.8625" width="114.8625" xmlns="http://www.w3.org/2000/svg"><path d="m901.547 500.352-401.192 401.175c-23.093 23.11-60.566 23.11-83.691 0l-83.301-83.316 105.676-105.676c24.559 8.293 52.723 2.727 72.293-16.847 19.688-19.696 25.207-48.102 16.699-72.75l101.856-101.844c24.648 8.496 53.066 3.004 72.754-16.711 27.5-27.492 27.5-72.059 0-99.574-27.52-27.516-72.078-27.516-99.61 0-20.683 20.703-25.801 51.097-15.312 76.582l-95 94.992v-249.969c6.699-3.32 13.027-7.742 18.613-13.312 27.5-27.497 27.5-72.059 0-99.598-27.5-27.488-72.09-27.488-99.57 0-27.5 27.539-27.5 72.101 0 99.598 6.797 6.789 14.668 11.925 23.066 15.363v252.281c-8.398 3.438-16.25 8.531-23.066 15.367-20.828 20.821-25.84 51.395-15.157 76.977l-104.179 104.195-275.0979-275.074c-23.10544-23.129-23.10544-60.602 0-83.711l401.2109-401.1758c23.098-23.10545 60.559-23.10545 83.691 0l399.317 399.3168c23.117 23.113 23.117 60.605 0 83.711" fill="#100f0d" transform="matrix(.125 0 0 -.125 0 114.8625)"/></svg>